<svg xmlns="http://www.w3.org/2000/svg" viewBox="0 0 1200 760" role="img" aria-labelledby="title desc">
  <title id="title">Bright learning games shelf</title>
  <desc id="desc">A colorful math game scene with stars, buttons, and a smiling character.</desc>
  <defs>
    <linearGradient id="sky" x1="0" x2="1" y1="0" y2="1">
      <stop offset="0" stop-color="#8bd3ff"/>
      <stop offset="0.55" stop-color="#fff2a8"/>
      <stop offset="1" stop-color="#ffb7cf"/>
    </linearGradient>
    <filter id="shadow" x="-20%" y="-20%" width="140%" height="140%">
      <feDropShadow dx="0" dy="18" stdDeviation="20" flood-color="#5d3b5e" flood-opacity="0.22"/>
    </filter>
  </defs>
  <rect width="1200" height="760" fill="url(#sky)"/>
  <circle cx="980" cy="130" r="78" fill="#fff7a6"/>
  <path d="M0 618c155-78 289-74 405 12 109 81 243 80 401-4 142-76 273-77 394-3v137H0z" fill="#79d88a"/>
  <path d="M0 672c199-55 358-45 476 29 116 72 275 65 477-20 88-37 170-45 247-24v103H0z" fill="#3ebc76"/>
  <g filter="url(#shadow)">
    <rect x="318" y="204" width="564" height="338" rx="38" fill="#ffffff"/>
    <rect x="356" y="248" width="488" height="112" rx="24" fill="#232b56"/>
    <text x="600" y="324" text-anchor="middle" font-family="Arial, sans-serif" font-size="58" font-weight="800" fill="#fff">7 x 8 = ?</text>
    <circle cx="440" cy="439" r="52" fill="#ff7c7c"/>
    <circle cx="600" cy="439" r="52" fill="#69c6ff"/>
    <circle cx="760" cy="439" r="52" fill="#ffd45c"/>
  </g>
  <g filter="url(#shadow)">
    <circle cx="197" cy="382" r="98" fill="#fff"/>
    <circle cx="162" cy="362" r="13" fill="#242945"/>
    <circle cx="232" cy="362" r="13" fill="#242945"/>
    <path d="M161 410c31 34 72 34 101 0" fill="none" stroke="#242945" stroke-width="12" stroke-linecap="round"/>
    <path d="M111 302c22-74 151-76 176 0" fill="#ffb84d"/>
    <circle cx="129" cy="408" r="17" fill="#ff9eb3"/>
    <circle cx="267" cy="408" r="17" fill="#ff9eb3"/>
  </g>
  <g fill="#fff46b" stroke="#f4a842" stroke-width="8" stroke-linejoin="round">
    <path d="M999 325l22 47 51 6-38 35 10 51-45-25-45 25 10-51-38-35 51-6z"/>
    <path d="M104 143l18 38 42 5-31 29 8 42-37-20-37 20 8-42-31-29 42-5z"/>
    <path d="M1071 555l16 34 37 5-27 25 6 37-32-18-33 18 7-37-27-25 37-5z"/>
  </g>
</svg>
